HIERARCHY
ROOT joint_Root
{
	OFFSET 0.0 0.0 0.0
	CHANNELS 6 Xposition Yposition Zposition Zrotation Xrotation Yrotation 
	JOINT Hips
	{
		OFFSET 4.5925 91.4895 -427.239
		CHANNELS 6 Xposition Yposition Zposition Zrotation Xrotation Yrotation 
		JOINT Spine
		{
			OFFSET 15.7357 0.0 0.0
			CHANNELS 6 Xposition Yposition Zposition Zrotation Xrotation Yrotation 
			JOINT Chest
			{
				OFFSET 8.98455 -0.406207 0.0
				CHANNELS 6 Xposition Yposition Zposition Zrotation Xrotation Yrotation 
				JOINT Neck
				{
					OFFSET 16.3773 0.0 0.0
					CHANNELS 6 Xposition Yposition Zposition Zrotation Xrotation Yrotation 
					JOINT Head
					{
						OFFSET 6.45672 0.0 0.0
						CHANNELS 6 Xposition Yposition Zposition Zrotation Xrotation Yrotation 
						End Site
						{
							OFFSET 0.0 0.0 0.0
						}
					}
				}
				JOINT Shoulder_L
				{
					OFFSET 12.9942 -0.242716 4.98039
					CHANNELS 6 Xposition Yposition Zposition Zrotation Xrotation Yrotation 
					JOINT UpperArm_L
					{
						OFFSET 5.34809 0.0 0.0
						CHANNELS 6 Xposition Yposition Zposition Zrotation Xrotation Yrotation 
						JOINT LowerArm_L
						{
							OFFSET 24.3286 1.87007e-05 0.0
							CHANNELS 6 Xposition Yposition Zposition Zrotation Xrotation Yrotation 
							JOINT Hand_L
							{
								OFFSET 22.2916 0.0 0.0
								CHANNELS 6 Xposition Yposition Zposition Zrotation Xrotation Yrotation 
								End Site
								{
									OFFSET 0.0 0.0 0.0
								}
							}
						}
					}
				}
				JOINT Shoulder_R
				{
					OFFSET 12.9945 -0.242716 -4.98039
					CHANNELS 6 Xposition Yposition Zposition Zrotation Xrotation Yrotation 
					JOINT UpperArm_R
					{
						OFFSET -5.34813 0.0 0.0
						CHANNELS 6 Xposition Yposition Zposition Zrotation Xrotation Yrotation 
						JOINT LowerArm_R
						{
							OFFSET -24.3289 0.000322201 0.0
							CHANNELS 6 Xposition Yposition Zposition Zrotation Xrotation Yrotation 
							JOINT Hand_R
							{
								OFFSET -22.2915 -0.000108084 0.0
								CHANNELS 6 Xposition Yposition Zposition Zrotation Xrotation Yrotation 
								End Site
								{
									OFFSET 0.0 0.0 0.0
								}
							}
						}
					}
				}
			}
		}
		JOINT UpperLeg_L
		{
			OFFSET -2.19248 -6.46944 0.0
			CHANNELS 6 Xposition Yposition Zposition Zrotation Xrotation Yrotation 
			JOINT LowerLeg_L
			{
				OFFSET 39.0811 0.0 -1.23785e-05
				CHANNELS 6 Xposition Yposition Zposition Zrotation Xrotation Yrotation 
				JOINT Foot_L
				{
					OFFSET 40.9854 0.0 -1.26872e-05
					CHANNELS 6 Xposition Yposition Zposition Zrotation Xrotation Yrotation 
					JOINT Toes_L
					{
						OFFSET 11.7543 0.0 0.0
						CHANNELS 6 Xposition Yposition Zposition Zrotation Xrotation Yrotation 
						End Site
						{
							OFFSET 0.0 0.0 0.0
						}
					}
				}
			}
		}
		JOINT UpperLeg_R
		{
			OFFSET -2.19251 6.46944 0.0
			CHANNELS 6 Xposition Yposition Zposition Zrotation Xrotation Yrotation 
			JOINT LowerLeg_R
			{
				OFFSET -39.0811 -0.00228153 -0.0401928
				CHANNELS 6 Xposition Yposition Zposition Zrotation Xrotation Yrotation 
				JOINT Foot_R
				{
					OFFSET -40.9854 0.0 0.0
					CHANNELS 6 Xposition Yposition Zposition Zrotation Xrotation Yrotation 
					JOINT Toes_R
					{
						OFFSET -11.7543 0.0 0.0
						CHANNELS 6 Xposition Yposition Zposition Zrotation Xrotation Yrotation 
						End Site
						{
							OFFSET 0.0 0.0 0.0
						}
					}
				}
			}
		}
	}
}
MOTION
Frames:	7
Frame Time:	0.0333333
0.000000 0.000000 0.000000 0.000000 0.000000 -0.000000 -2.735440 90.721000 -7.444510 88.374100 -1.062540 12.242800 15.735700 0.000005 -0.000001 88.046700 75.663800 -88.101800 8.984550 -0.406207 -0.000000 20.891300 -0.959829 0.066480 16.377300 -0.000001 -0.000001 3.249490 -3.144640 1.999040 6.456720 -0.000001 -0.000000 -15.506000 -2.381930 2.638530 12.994200 -0.242716 4.980390 -91.153500 6.892590 -80.475800 5.348090 -0.000007 -0.000001 -59.473800 28.938500 -28.822500 24.328600 0.000019 0.000005 11.639300 23.630600 -27.198000 22.291600 -0.000001 0.000005 10.828500 5.207210 2.537830 12.994500 -0.242716 -4.980390 89.044400 10.128300 -84.581600 -5.348130 -0.000001 -0.000004 -59.433200 26.550100 -26.146000 -24.328900 0.000322 -0.000009 4.805780 8.234630 -30.418400 -22.291500 -0.000108 -0.000004 18.636900 5.382970 -2.391920 -2.192480 -6.469440 -0.000000 -172.852000 -12.000800 -5.105060 39.081100 -0.000007 -0.000012 -0.095727 0.147165 33.043000 40.985400 -0.000006 -0.000013 0.096315 7.442690 -65.427000 11.754300 -0.000000 0.000003 -0.000196 -0.001823 -16.646400 -2.192510 6.469440 -0.000001 177.280000 23.091700 177.074000 -39.081100 -0.002282 -0.040193 -0.102480 0.171959 31.597300 -40.985400 0.000008 0.000006 5.961160 14.422500 -66.830700 -11.754300 -0.000006 -0.000006 -0.002528 -0.035143 -18.002200
0.000000 0.000000 0.000000 0.000000 0.000000 -0.000000 -2.727830 90.723700 -7.445390 88.365400 -1.060360 12.224200 15.735700 0.000005 -0.000001 88.042000 75.658600 -88.099800 8.984550 -0.406207 -0.000000 20.901500 -0.962760 0.061673 16.377300 -0.000001 -0.000001 3.268450 -3.158790 2.010430 6.456720 -0.000001 -0.000000 -15.493500 -2.381130 2.651140 12.994200 -0.242716 4.980390 -91.152200 6.850800 -80.429400 5.348090 -0.000007 -0.000001 -58.985800 29.167600 -29.346700 24.328600 0.000019 0.000005 11.841800 23.314200 -27.913600 22.291600 -0.000001 0.000005 10.876200 5.205500 2.581070 12.994500 -0.242716 -4.980390 89.041000 10.136500 -84.567000 -5.348130 -0.000001 -0.000004 -59.413000 26.215100 -26.294900 -24.328900 0.000322 -0.000009 4.895470 8.142030 -31.169500 -22.291500 -0.000108 -0.000004 18.909600 5.385460 -2.470830 -2.192480 -6.469440 -0.000000 -172.862000 -11.967800 -5.122390 39.081100 -0.000007 -0.000012 -0.094600 0.145464 33.037600 40.985400 -0.000006 -0.000013 0.095176 7.416630 -65.426600 11.754300 -0.000000 0.000003 -0.000189 -0.001764 -16.644200 -2.192510 6.469440 -0.000001 177.272000 23.156200 177.063000 -39.081100 -0.002282 -0.040193 -0.104216 0.174900 31.579900 -40.985400 0.000008 0.000006 5.969860 14.493000 -66.819200 -11.754300 -0.000006 -0.000006 -0.002498 -0.034785 -17.987600
0.000000 0.000000 0.000000 0.000000 0.000000 -0.000000 -2.719120 90.724100 -7.437060 88.354400 -1.114610 12.247600 15.735700 0.000005 -0.000001 88.110600 75.637600 -88.171600 8.984550 -0.406207 -0.000000 20.944600 -0.930909 0.049774 16.377300 -0.000001 -0.000001 3.303670 -3.155380 2.016140 6.456720 -0.000001 -0.000000 -15.547200 -2.411610 2.666340 12.994200 -0.242716 4.980390 -91.151300 6.832920 -80.412200 5.348090 -0.000007 -0.000001 -58.943200 28.790600 -29.557500 24.328600 0.000019 0.000005 12.229400 23.051200 -28.966700 22.291600 -0.000001 0.000005 10.999200 5.206670 2.551840 12.994500 -0.242716 -4.980390 89.039000 10.118600 -84.545900 -5.348130 -0.000001 -0.000004 -59.480600 25.767200 -26.385300 -24.328900 0.000322 -0.000009 5.069460 8.143830 -32.061400 -22.291500 -0.000108 -0.000004 18.935900 5.386890 -2.516350 -2.192480 -6.469440 -0.000000 -172.841000 -11.991400 -5.084380 39.081100 -0.000007 -0.000012 -0.094605 0.145441 33.043200 40.985400 -0.000006 -0.000013 0.092411 7.389720 -65.441500 11.754300 -0.000000 0.000003 -0.000191 -0.001782 -16.644900 -2.192510 6.469440 -0.000001 177.264000 23.167600 177.098000 -39.081100 -0.002282 -0.040193 -0.102034 0.171416 31.570200 -40.985400 0.000008 0.000006 5.985350 14.567500 -66.821800 -11.754300 -0.000006 -0.000006 -0.002474 -0.034499 -17.976000
0.000000 0.000000 0.000000 0.000000 0.000000 -0.000000 -2.710160 90.725900 -7.432000 88.352600 -1.136340 12.244700 15.735700 0.000005 -0.000001 88.103000 75.620800 -88.171000 8.984550 -0.406207 -0.000000 20.978000 -0.936504 0.036829 16.377300 -0.000001 -0.000001 3.328020 -3.163160 2.040090 6.456720 -0.000001 -0.000000 -15.581500 -2.401710 2.627910 12.994200 -0.242716 4.980390 -91.149300 6.793320 -80.374300 5.348090 -0.000007 -0.000001 -59.147500 28.042200 -29.637800 24.328600 0.000019 0.000005 12.553400 22.446800 -30.249900 22.291600 -0.000001 0.000005 11.238900 5.206140 2.564800 12.994500 -0.242716 -4.980390 89.038400 10.065200 -84.514100 -5.348130 -0.000001 -0.000004 -59.577100 25.278200 -26.502900 -24.328900 0.000322 -0.000009 5.212690 8.063360 -33.045500 -22.291500 -0.000108 -0.000004 19.081300 5.388480 -2.566930 -2.192480 -6.469440 -0.000000 -172.836000 -12.009300 -5.076990 39.081100 -0.000007 -0.000012 -0.097126 0.149358 33.035900 40.985400 -0.000006 -0.000013 0.091190 7.379760 -65.441900 11.754300 -0.000000 0.000003 -0.000210 -0.001932 -16.650300 -2.192510 6.469440 -0.000001 177.242000 23.228100 177.108000 -39.081100 -0.002282 -0.040193 -0.105449 0.177039 31.560700 -40.985400 0.000008 0.000006 5.996290 14.634700 -66.821100 -11.754300 -0.000006 -0.000006 -0.002457 -0.034302 -17.968000
0.000000 0.000000 0.000000 0.000000 0.000000 -0.000000 -2.697500 90.727900 -7.423300 88.348100 -1.175240 12.233300 15.735700 0.000005 -0.000001 88.122200 75.610200 -88.200000 8.984550 -0.406207 -0.000000 20.999400 -0.928845 0.016068 16.377300 -0.000001 -0.000001 3.395530 -3.164520 2.030620 6.456720 -0.000001 -0.000000 -15.606900 -2.413420 2.602840 12.994200 -0.242716 4.980390 -91.140900 6.706850 -80.323000 5.348090 -0.000007 -0.000001 -59.147500 27.434700 -29.836300 24.328600 0.000019 0.000005 12.878200 21.638500 -31.799800 22.291600 -0.000001 0.000005 11.415000 5.207400 2.533090 12.994500 -0.242716 -4.980390 89.032400 10.013700 -84.452300 -5.348130 -0.000001 -0.000004 -59.615500 24.777900 -26.653700 -24.328900 0.000322 -0.000009 5.363530 7.950000 -34.174500 -22.291500 -0.000108 -0.000004 19.208100 5.389750 -2.607240 -2.192480 -6.469440 -0.000000 -172.837000 -12.075500 -5.074650 39.081100 -0.000007 -0.000012 -0.093814 0.144262 33.036200 40.985400 -0.000006 -0.000013 0.109822 7.380740 -65.452700 11.754300 -0.000000 0.000003 -0.000195 -0.001811 -16.645900 -2.192510 6.469440 -0.000001 177.224000 23.282200 177.113000 -39.081100 -0.002282 -0.040193 -0.103177 0.173418 31.549300 -40.985400 0.000008 0.000006 6.016880 14.748800 -66.827200 -11.754300 -0.000006 -0.000006 -0.002525 -0.035106 -18.000700
0.000000 0.000000 0.000000 0.000000 0.000000 -0.000000 -2.685180 90.729200 -7.427230 88.343900 -1.154360 12.207700 15.735700 0.000005 -0.000001 88.134700 75.605600 -88.218800 8.984550 -0.406207 -0.000000 21.008700 -0.923738 0.002544 16.377300 -0.000001 -0.000001 3.465160 -3.163310 2.013010 6.456720 -0.000001 -0.000000 -15.586500 -2.439770 2.592030 12.994200 -0.242716 4.980390 -91.142700 6.660270 -80.242200 5.348090 -0.000007 -0.000001 -58.592600 27.171200 -30.436800 24.328600 0.000019 0.000005 13.382000 21.056500 -33.510300 22.291600 -0.000001 0.000005 11.510900 5.209990 2.467550 12.994500 -0.242716 -4.980390 89.026400 9.967100 -84.392100 -5.348130 -0.000001 -0.000004 -59.586500 24.225200 -26.788900 -24.328900 0.000322 -0.000009 5.698030 8.032350 -35.534600 -22.291500 -0.000108 -0.000004 19.425700 5.390160 -2.620470 -2.192480 -6.469440 -0.000000 -172.845000 -12.049800 -5.108090 39.081100 -0.000007 -0.000012 -0.095577 0.146996 33.032400 40.985400 -0.000006 -0.000013 0.113698 7.394540 -65.445500 11.754300 -0.000000 0.000003 -0.000197 -0.001826 -16.646500 -2.192510 6.469440 -0.000001 177.204000 23.376200 177.098000 -39.081100 -0.002282 -0.040193 -0.104842 0.176178 31.542300 -40.985400 0.000008 0.000006 6.024450 14.814200 -66.826300 -11.754300 -0.000006 -0.000006 -0.002549 -0.035395 -18.012400
0.000000 0.000000 0.000000 0.000000 0.000000 -0.000000 -2.681740 90.733900 -7.432850 88.324600 -1.055550 12.202500 15.735700 0.000005 -0.000001 88.105200 75.599800 -88.184600 8.984550 -0.406207 -0.000000 21.019900 -0.937988 0.014778 16.377300 -0.000001 -0.000001 3.574330 -3.164760 2.010400 6.456720 -0.000001 -0.000000 -15.552500 -2.459270 2.576750 12.994200 -0.242716 4.980390 -91.139300 6.607360 -80.194700 5.348090 -0.000007 -0.000001 -57.852300 26.885900 -31.227100 24.328600 0.000019 0.000005 14.085500 20.653800 -35.426800 22.291600 -0.000001 0.000005 11.532200 5.207410 2.532880 12.994500 -0.242716 -4.980390 89.023900 9.894060 -84.337300 -5.348130 -0.000001 -0.000004 -59.519500 23.617900 -26.909900 -24.328900 0.000322 -0.000009 6.007710 8.007020 -37.077000 -22.291500 -0.000108 -0.000004 19.622500 5.389460 -2.598130 -2.192480 -6.469440 -0.000000 -172.860000 -11.968700 -5.133330 39.081100 -0.000007 -0.000012 -0.093178 0.143363 33.022100 40.985400 -0.000006 -0.000013 0.122791 7.391880 -65.428500 11.754300 -0.000000 0.000003 -0.000200 -0.001853 -16.647500 -2.192510 6.469440 -0.000001 177.173000 23.569600 177.128000 -39.081100 -0.002282 -0.040193 -0.107263 0.180373 31.506700 -40.985400 0.000008 0.000006 6.040100 14.895600 -66.817400 -11.754300 -0.000006 -0.000006 -0.002611 -0.036124 -18.042100
